<svg width="61" height="62" viewBox="0 0 61 62" fill="none" xmlns="http://www.w3.org/2000/svg">
<g clip-path="url(#clip0_92_2438)">
<path d="M37.7282 11.0806C36.2683 10.1926 33.1831 8.87708 27.6515 9.62263C23.2553 10.3218 19.4054 12.1906 16.1645 15.2491C12.2583 18.9337 9.99401 23.4799 9.48091 28.8181C8.82877 35.6175 10.9706 41.4958 15.7673 46.3435C19.4815 50.0944 24.0531 52.1687 29.3033 52.5365C36.2948 53.0236 42.2071 50.6047 46.9774 45.4687C49.3608 42.904 50.9365 39.8754 51.827 36.4923C51.9065 36.1841 52.0157 36.1477 52.3004 36.2206C55.1937 36.9396 58.0902 37.6454 60.9835 38.3545L60.9967 38.5135C60.8742 38.5997 60.8908 38.7422 60.8577 38.8648C59.5931 43.6363 57.3586 47.8975 54.0582 51.5657C49.2185 56.9469 43.2234 60.2704 36.0896 61.5262C35.7387 61.5892 35.358 61.5428 35.0369 61.7482C33.9842 61.8344 32.9282 61.9205 31.8755 62.0067C31.5213 61.8675 31.1505 61.9603 30.793 61.9537C23.54 61.8476 17.055 59.5712 11.4208 54.9852C6.21689 50.7505 2.71453 45.356 1.05935 38.8582C-1.26121 29.7492 0.235072 21.2201 5.50517 13.4365C9.49084 7.55165 14.9794 3.59195 21.7392 1.44808C27.0821 -0.24515 37.3012 -0.984073 42.8824 2.24002L37.7282 11.0806Z" fill="#2E6AA9"/>
<path d="M34.1695 33.6492L40.0156 42.1981C42.1507 45.2798 42.2898 45.4918 43.2696 46.6814H34.3449C33.8186 45.2102 33.0506 43.6694 32.0343 41.9861L29.3727 37.642L26.7476 40.1636V41.5653C26.7476 44.4381 26.7807 45.2798 27.0257 46.6814H19.8853C20.0938 45.1041 20.1633 43.7025 20.1633 41.3929V22.8271C20.1633 20.4446 20.0574 18.8342 19.8853 17.5386H26.9893C26.7807 18.9734 26.7079 20.4811 26.7079 22.8271V32.6717L46.7356 3.37317H56.0443L34.1695 33.6492Z" fill="#2E6AA9"/>
<path d="M29.3762 37.642L26.751 40.1636L29.3762 37.642ZM27.0291 46.6814H19.8887L20.1667 22.8238C20.1667 20.4413 20.0608 18.8309 19.8887 17.5353H26.9927C26.7842 18.9701 26.7113 20.4778 26.7113 22.8238V32.6683L46.7357 3.37317H56.0444L27.0291 46.6814Z" fill="#C9DB50"/>
</g>
<defs>
<clipPath id="clip0_92_2438">
<rect width="61" height="62" fill="white"/>
</clipPath>
</defs>
</svg>
